<?xml version="1.0" encoding="UTF-8" standalone="no"?><!DOCTYPE svg PUBLIC "-//W3C//DTD SVG 1.1//EN" "http://www.w3.org/Graphics/SVG/1.1/DTD/svg11.dtd"><svg width="100%" height="100%" viewBox="0 0 8000 2163" version="1.1" xmlns="http://www.w3.org/2000/svg" xmlns:xlink="http://www.w3.org/1999/xlink" xml:space="preserve" xmlns:serif="http://www.serif.com/" style="fill-rule:evenodd;clip-rule:evenodd;stroke-linejoin:round;stroke-miterlimit:2;"><g><g><path d="M3738.76,1621.56l-270.737,-0l0,-614.019l-182.562,316.208c-0,-0 -176.35,-0 -176.35,-0l-182.563,-316.208l0,614.019l-270.737,-0l-0,-1082.95l319.93,0l221.545,383.727l221.544,-383.727l319.93,0l0,1082.95Z" style="fill:#fff;"/><rect x="5996.7" y="538.613" width="270.737" height="1082.95" style="fill:#fff;"/><path d="M5200.74,1007.54l0,614.019l-41.815,-0l-228.922,-393.086l0,-689.864l319.93,0l354.504,614.019l-0,-614.019l270.737,0l0,1082.95c0,-0 -319.93,-0 -319.93,-0l-354.504,-614.019Z" style="fill:#fff;"/><path d="M4256.91,538.613l154.942,0l625.241,1082.95l-319.93,-0l-382.782,-662.999l-382.783,662.999l-91.008,-0l0,-396.505l396.32,-686.445Z" style="fill:#fff;"/><path d="M6785.59,538.613l154.942,0l625.241,1082.95l-319.93,-0l-382.782,-662.999l-382.782,662.999l-91.008,-0l-0,-396.505l396.319,-686.445Z" style="fill:#fff;"/><path d="M7374.76,1080.09c-0,0 312.62,-541.475 312.62,-541.475l312.621,0l-312.621,541.475c0,0 312.621,541.475 312.621,541.475l-312.621,-0c0,-0 -312.62,-541.475 -312.62,-541.475Z" style="fill:#fff;"/></g><g><path d="M19.675,1749.07c0.359,0.442 0.723,0.838 1.094,1.186c6.853,6.038 10.198,14.865 18.361,20.299c5.626,3.745 16.766,4.031 20.984,9.822c3.226,4.832 33.967,7.592 34.098,15.035l0,0.05c0.049,2.78 16.71,8.18 19.41,9.797c6.044,3.621 22.885,16.99 27.769,17.025l0.068,-0c8.611,0.061 20.701,8.121 30.13,9.167c18.419,2.043 37.028,2.303 55.475,3.929c7.757,0.683 18.816,-3.799 23.213,2.619c15.615,21.439 24.817,53.516 44.59,72.028c8.098,7.135 12.997,16.026 13.109,26.952l0.012,2.408c0.478,46.537 14.578,89.422 26.224,133.029c0.719,2.694 8.571,36.653 11.803,36.669c347.319,1.744 694.643,2.144 1041.97,2.619l-1368.31,0l0,-362.634Zm2107.36,362.634l-115.268,0l57.318,-0.047l57.95,-0.05l-0,0.097Zm-2107.36,-808.124c1.771,-2.78 3.454,-5.221 5.029,-6.968c8.792,-9.755 22.716,-15.755 31.475,-25.668c7.37,-7.85 20.656,-11.852 27.541,-19.644c6.212,-6.617 16.599,-10.578 22.295,-17.024c29.85,-31.794 86.54,-15.354 121.705,-17.549c7.738,-0.524 15.869,-1.441 17.967,-2.095c5.573,-1.67 14.949,3.082 17.312,-2.227c1.602,-5.601 10.047,-5.935 15.213,-8.643c5.114,-2.75 12.983,-7.596 17.311,-10.87c4.328,-3.143 8.787,-6.155 9.836,-6.679c6.907,-2.586 16.406,-8.423 22.295,-12.834c7.398,-5.91 18.502,-4.095 27.804,-5.893c25.008,-4.833 52.361,-1.759 76.065,-12.572c11.672,-5.164 28.651,-5.491 34.361,-16.894c5.068,-13.497 53.329,-8.585 59.803,-8.512c29.594,0.332 59.489,4.049 88.787,-0.131c5.639,-0.917 12.328,-2.619 14.819,-3.929c3.727,-2.003 20.938,-3.861 26.23,-1.178c16.779,8.507 32.215,19.437 48.524,28.811c11.505,6.611 28.21,1.222 39.082,9.167c15.46,11.298 11.892,13.614 23.213,27.632c9.295,11.88 13.708,26.44 18.361,40.467c18.311,55.203 34.548,103.315 45.246,160.425c1.536,8.198 3.681,16.61 2.623,24.882c-1.709,13.365 -56.718,26.271 -68.984,19.775c-11.389,-6.031 -2.588,-25.617 -3.766,-38.437c-1.068,-11.617 -5.762,-49.038 -8.562,-59.258c-3.079,-11.247 -7.29,-22.222 -12.327,-32.74c-2.337,-4.878 -5.143,9.727 -6.033,15.06c-2.529,15.15 -6.441,-1.6 -9.18,-25.537c-2.66,-23.24 -5.271,-46.71 -3.935,-70.063c0.681,-11.896 13.157,-26.44 5.246,-35.359c-2.953,-3.33 -32.411,-18.43 -35.41,-12.442c-7.963,15.904 -16.173,43.018 -14.426,66.135c0.255,3.379 -0.765,10.01 2.623,9.822c4.64,-0.257 5.18,-12.838 9.18,-10.477c0,0 2.037,2.05 2.623,3.929c10.391,31.029 27.443,70.193 27.541,103.85l0.001,0.526c0.134,46.198 46.358,116.184 -24.919,127.422c-14.738,2.324 -29.669,3.929 -44.59,3.929c-1.649,0.58 -4.804,1.689 -5.246,0c-4.934,-18.851 -6.071,-38.504 -9.836,-57.622c-2.793,-14.187 -9.646,-27.793 -9.83,-42.251c-2.434,-15.745 -4.887,-31.615 -9.711,-46.802c-0.324,-1.02 -1.079,28.605 -2.098,27.502c-5.255,-5.684 -4.081,-14.934 -6.558,-22.263c-5.389,-15.952 -15.662,-27.21 -10.491,-43.217c3.252,-10.068 11.523,-18.891 11.803,-29.466c0.199,-7.534 -7.889,-12.962 -10.492,-20.037c-3.179,-8.642 3.06,-7.627 2.623,-17.286c-0.595,-13.143 -8.553,-25.325 -16.994,-34.623c-12.009,-12.644 -63.006,-22.413 -63.006,7.121c0,5.275 9.462,-4.745 14.426,-6.548c11.315,-4.108 19.338,-5.797 33.574,-2.095c6.195,1.611 -7.476,10.937 -7.738,11.263c-14.222,17.67 -21.178,24.501 -25.836,47.669c-0.292,1.455 3.339,0.735 3.935,2.095c9.594,21.911 18.021,44.324 26.229,66.789c8.018,21.943 21.684,78.306 24.918,92.327c4.812,20.857 9.8,41.715 13.115,62.86c0.646,4.12 1.855,9.723 -1.312,12.442c-8.893,7.637 -20.058,13.027 -31.475,15.715c-13.625,3.207 -29.01,6.864 -41.967,1.571c-9.161,-3.742 -10.5,-16.757 -15.738,-25.144c-16.081,-25.749 -19.604,-38.076 -30.033,-62.861c-4.446,-10.567 -4.772,-40.746 -16.393,-41.907c-2.73,-0.272 1.57,14.129 1.836,15.061c2.511,8.777 9.957,25.684 3.935,34.704c-1.356,2.03 -0.875,-4.802 -1.312,-7.203c-1.333,-7.319 -4.376,-13.22 -6.557,-20.298c-5.822,-18.894 -15.738,-37.85 -15.738,-58.277l-0,-5.894l5.377,0c23.775,0 -4.739,-51.445 -9.311,-62.86c-0.632,-1.576 -6.784,-12.795 -6.558,-13.096c3.287,-4.376 11.709,12.607 14.426,7.857c5.561,-9.716 -17.244,-39.85 -23.868,-35.621c-6.194,3.955 -18.85,16.341 -24.656,22.526c-8.405,9.512 -19.62,19.921 -28.853,28.811c-0.486,0.475 -6.749,26.463 3.148,22.263c0.994,-0.422 2.397,-28.179 10.754,-20.43c9.457,10.17 -7.093,36.865 9.671,49.216l0.068,0.05c17.611,12.975 7.478,60.415 24.884,72.003c4.71,3.448 5.228,20.88 6.557,26.191c5.455,21.789 30.836,61.437 23.607,83.815c-3.521,10.899 -28.169,21.02 -38.033,26.191c-2.072,1.087 -14.426,7.631 -14.426,7.858c-0,7.434 -18.455,5.059 -22.295,-1.31c-9.604,-15.93 -36.009,-81.815 -44.59,-104.767c-1.315,-3.516 -3.652,-19.04 -9.705,-19.644c-3.484,-0.348 -0.076,7.032 0.524,10.477c1.132,6.496 2.366,13.147 0,19.644l-2.623,-5.239c-8.018,-16.955 -23.606,-32.323 -23.606,-51.074c-0,-2.434 2.788,-7.858 5.902,-7.858c2.364,0 4.844,6.041 5.901,3.929c10.677,-21.323 3.161,-41.194 9.705,-62.337c1.548,-4.999 6.033,-1.481 6.033,-7.071l-0,-5.239l-11.148,0c-5.672,0 -16.293,1.105 -16.393,-4.559l-0,-0.049c-0.055,-3.144 -13.165,-5.289 -14.426,-7.178c-1.041,-1.429 -3.115,-2.601 -4.557,-2.619l-0.067,-0c-2.908,-0.037 -12.918,-8.35 -14.393,-9.822c-4.765,-4.6 -6.833,-14.42 -1.311,-19.644c2.352,-2.529 6.492,-3.102 8.524,-5.893c7.908,-11.406 38.76,-9.011 48.525,-10.477c12.261,-1.841 38.279,-25.639 44.59,-33.395c2.109,-2.591 -6.621,1.047 -9.836,1.965c-7.02,2.003 -12.743,4.226 -19.016,7.857c-19.3,11.172 -40.676,15.071 -60.328,24.882c-29.047,14.503 -40.656,35.68 -40.656,68.099c0,14.021 6.41,32.235 0,45.836c-0.782,1.661 -11.533,-24.343 -11.803,-24.882c-7.386,-14.75 -17.249,-55.39 -0.034,-68.074l0.068,-0.05c6.838,-5.038 12.404,-14.365 19.638,-19.619c8.566,-6.059 -11.457,5.782 -13.639,7.858c-8.394,7.984 -17.125,15.76 -24.263,24.882c-4.528,5.788 -10.054,31.569 -16.393,33.526c-7.597,2.344 -28.304,-6.85 -33.574,-3.405c-1.681,1.099 -31.181,34.551 -32.262,33.525c-13.337,-13.317 16.419,-40.856 17.822,-52.942l0.028,-0.454c0.962,-8.291 19.478,-15.292 12.445,-24.656c-3.103,-4.131 -36.867,6.083 -37.363,9.628l-0.028,0.389c-0.307,2.198 -27.04,14.848 -28.795,14.866l-0.087,-0c-3.616,0.036 -22.975,11.56 -24.874,14.405c-3.729,5.12 -13.934,7.071 -18.361,11.787c-6.264,7.088 -14.401,11.985 -22.078,17.435l0,-45.041Zm1460.5,-192.399c-3.599,0.204 -8.813,6.35 -11.536,9.16c-19.113,19.722 -30.2,34.121 -41.967,57.622c-32.463,64.833 -61.066,131.287 -78.689,201.678c-4.6,18.375 -19.605,35.742 -19.671,55.431l-0.001,0.453c-0.027,7.903 -4.07,23.712 -7.869,30.68c-2.528,4.637 -12.723,16.354 -11.803,22.787c1.045,7.302 27.12,0.524 27.528,-0.582l0.026,-0.146c0.438,-1.185 27.525,-3.845 30.58,-3.855l0.453,-0.001c16.231,-0.055 31.324,-8.371 45.675,-14.405l4.59,-1.834l0,-16.763c0,-17.424 3.208,-35.478 5.246,-52.776c0.644,-5.466 0.591,-21.839 3.935,-26.847c-0,0 2.623,7.858 2.623,7.858c2.852,-4.986 2.021,-11.315 2.623,-17.025c1.733,-16.444 3.635,-31.75 6.557,-47.8c0.736,-4.042 1.381,-8.473 2.623,-12.441c0.948,-3.028 5.218,-11.026 5.377,-7.858c0.852,17.007 1.171,34.046 1.049,51.074c-0.335,35.81 -6.104,59.818 -9.049,93.636c-0.554,6.366 -5.084,13.091 -2.623,18.989c4.043,9.691 32.694,-7.156 39.344,-10.476c1.461,-0.73 10.461,-4.104 10.492,-5.869l0,-0.049c0.02,-1.123 5.585,-3.556 6.557,-4.559c10.138,-10.46 20.681,-25.253 31.476,-35.359c6.509,-5.735 7.697,-18.686 14.426,-23.573c5.322,-3.543 7.614,-17.825 10.492,-23.573c11.946,-23.858 26.229,-60.612 26.229,-87.088c0,-14.121 -6.393,-12.517 -14.426,-21.608c-13.214,-14.074 -35.205,-32.839 -52.459,-41.907c-6.769,-3.558 -23.042,-9.714 -23.606,-18.334c-0.009,-0.138 -2.183,-74.647 -3.935,-74.647l-0.267,0.007Zm646.862,376.679c-9.54,-6.121 -19.276,-11.881 -30.202,-15.238c-47.99,-14.745 -94.707,-36.918 -142.951,-49.765c-15.212,-4.051 -41.43,-2.718 -53.77,-10.476c-18.85,-11.852 -32.613,-30.576 -48.525,-45.836c-11.588,-11.115 -32.903,-16.045 -43.073,-28.545l-0.411,-0.533c-6.757,-8.306 -26.902,-6.942 -32.581,-15.449c-1.438,-1.974 -12.709,-4.205 -13.101,-7.008l-0.027,-0.389c-0.661,-4.719 -22.807,-12.509 -27.528,-14.866c-22.012,-10.99 -66.302,-27.366 -82.623,-45.835c-31.003,-33.023 -66.852,-45.467 -107.541,-60.242c-7.268,-2.639 -53.77,-13.536 -53.77,-20.953c-0,-26.587 3.206,-61.627 7.869,-89.053c4.586,-26.979 23.606,-110.439 23.606,-149.948l0,-4.584l7.869,-0c31.284,-3.124 46.451,-57.17 53.771,-74.647c12.448,-29.722 4.321,-30.386 6.557,-62.206c1.303,-18.541 6.941,-36.551 9.18,-55.003c1.47,-12.104 -8.952,-52.763 -27.541,-33.394c-12.638,14.302 0.011,-45.902 1.312,-53.694c6.549,-39.236 11.68,-79.752 11.797,-119.532l0.012,-8.449c0.066,-22.148 4.312,-56.702 23.601,-73.696c3.538,-3.313 15.45,-22.895 15.737,-26.716c0.263,-3.492 -8.495,-3.665 -10.491,-0.786c-2.749,3.774 -10.531,5.427 -14.427,7.858c-0.272,0.17 -5.615,4.385 -5.901,3.929c-11.485,-18.35 4.894,-47.848 -5.902,-69.409c-0.108,-0.216 -9.222,-31.705 -10.492,-30.121c-2.181,2.724 -3.426,15.163 -3.934,18.335c-1.886,11.77 -17.089,58.634 -20.984,24.227c-0.567,-5.007 -0.91,-10.037 -1.311,-15.06c-0.474,-5.932 -1.303,-11.853 -1.311,-17.804l-0.001,-1.061c-0.022,-15.098 -3.734,-26.172 -7.213,-40.067c-0.298,-1.192 -5.209,-28.02 -5.901,-27.501c-9.697,7.261 -0.689,34.144 -8.394,42.692c-3.7,3.51 -15.384,-35.078 -20.459,-38.764c-7.504,-4.995 -4.517,-23.354 -11.803,-28.811c-3.605,-2.7 -5.246,7.942 -5.246,12.441c-0,2.507 11.371,40.24 8.393,39.943c-13.103,-1.308 -13.581,-34.854 -26.098,-37.978c-0.956,-0.239 4.548,18.621 -2.623,19.644c-4.495,0.641 -16.991,-9.631 -20.59,-11.787c-16.956,-10.159 -38.882,-18.981 -52.197,-34.049c-6.963,-7.417 -17.69,-12.159 -24.918,-19.644c-14.955,-14.933 -33.492,-25.519 -49.836,-38.633c-4.953,-3.974 -14.207,-14.187 -17.049,-8.512c-3.072,6.135 19.672,23.578 19.672,32.085l0,5.893l-59.672,-0c-23.943,-0 -47.839,2.566 -71.782,2.619l-0.698,0c-28.488,0.063 -57.11,7.81 -85.738,7.857l-0.941,0.001c-27.601,0.045 -55.212,-2.516 -82.606,-2.619l-0.404,-0.001c-5.15,-0.02 -17.838,-6.331 -22.093,-0.262c-2.48,3.538 16.104,20.272 17.049,21.216c3.886,4.024 9.286,6.398 13.115,10.477c1.117,1.263 18.027,8.453 12.59,13.881c-7.204,6.474 -31.994,2.466 -38.819,12.311c-4.723,6.484 -16.937,7.617 -22.093,14.138l-0.405,0.534c-14.021,17.735 -35.677,36.595 -52.257,52.117l-7.868,10.477c-12.37,10.898 -21.608,24.705 -35.41,34.049c-1.93,1.307 -24.102,11.336 -23.607,12.572c7.622,19.027 38.241,-4.409 31.476,17.549c-5.819,18.882 -10.908,38.33 -15.738,57.622c-1.306,5.217 -7.537,31.518 -6.557,30.121c8.717,-11.97 18.528,1.679 19.278,2.095c7.888,3.676 -0.918,17.369 -0.918,26.061c0,31.608 5.254,64.889 9.181,96.255c2.671,21.342 13.114,47.381 13.114,68.099c0,10.991 -11.772,2.277 -15.082,3.929c-2.488,1.242 -17.114,12.863 -17.705,19.644c-6.381,73.277 9.59,151.563 60.328,205.606c5.118,5.792 10.634,6.359 15.738,12.965c15.454,20.004 7.128,75.923 7.869,98.351c0.428,12.961 2.923,70.203 0.278,83.748c-0.83,4.257 -14.863,7.279 -17.327,7.923c-24.347,6.365 -49.913,14.622 -73.443,23.573c-26.476,10.072 -83.184,52.085 -106.36,25.406c-5.378,-6.286 -10.492,-12.703 -11.41,-14.536c-1.049,-1.703 -3.148,-3.667 -4.722,-4.191c-1.573,-0.655 -6.032,-2.75 -9.967,-4.584c-5.246,-2.488 -10.754,-3.797 -21.901,-4.845c-0.259,-0.029 -27.799,-3.71 -27.935,-10.982l-0,-0.037c-0.233,-12.466 -20.175,-14.976 -31.475,-20.28c-16.217,-7.612 -26.066,1.485 -42.625,3.602c-38.91,4.973 -50.026,1.714 -81.004,1.636l-0.611,-0c-6.312,-0.016 -37.807,-0.784 -41.137,-4.715c-1.443,-1.833 -3.41,-1.964 -11.148,-1.44c-19.54,1.754 -72.854,24.905 -81.573,35.621c-4.88,6.154 -44.278,5.82 -50.886,5.631c-21.377,-0.786 -28.065,0.393 -34.885,6.155c-4.447,3.886 -5.98,2.741 -10.623,6.286c-2.229,1.572 -5.114,3.536 -6.295,4.191c-6.416,4.272 -12.993,8.301 -19.41,12.572c-4.251,2.717 -10.201,2.723 -13.77,6.286c-6.033,5.37 -18.623,8.251 -39.082,8.905c-31.267,1.179 -60.701,-3.377 -91.541,4.322c-12.77,3.188 -29.846,20.767 -41.939,20.953l-0.056,0.001c-3.136,0.048 -4.677,5.189 -7.813,5.238l-0.056,0c-5.827,0.09 -18.789,12.011 -22.267,15.715c-8.298,9.391 -21.228,15.959 -30.164,24.882c-4.547,4.71 -9.373,9.526 -14.209,14.312l0,-1259.11l2107.36,-0l-0,1459.1Zm-942.988,-15.238c-1.123,-0.816 -3.095,-6.139 -3.934,-7.858c-2.595,-5.312 -6.129,-10.373 -9.181,-15.453c-2.069,-3.444 -3.986,-9.21 -6.688,-12.048c-0.882,-0.926 -2.425,-1.029 -3.295,-1.965c-3.556,-3.823 -6.966,-10.506 -9.689,-15.06c-2.828,-4.73 -4.652,-10.555 -8.262,-14.815c-2.016,-2.379 -5.554,-3.313 -7.23,-5.942c-1.01,-1.586 -2.274,-8.901 -3.524,-10.149c-1.705,-1.834 -2.23,-1.834 -3.935,-0c-0.876,0.875 -1.731,1.965 -1.901,3.192c-0.277,1.987 1.922,3.547 2.557,5.451c1.124,3.366 2.082,10.989 5.246,13.096c3.977,2.912 1.705,7.956 3.066,11.852c0.703,2.014 2.108,0.532 3,2.193c1.489,2.777 -0.086,6.088 3.114,8.218c3.35,2.453 3.072,9.523 3.935,13.096c1.496,6.2 3.061,12.335 5.246,18.334c0.688,1.891 0.675,4.113 1.852,5.746c1.349,1.87 4.02,2.266 6.016,3.421c5.927,3.431 14.05,7.319 20.984,7.858c6.096,0.474 7.227,-6.102 2.623,-9.167Zm-84.477,-142.746c-1.55,0.039 -0.762,4.979 0.936,5.631c1.312,0.393 1.312,1.179 0,3.405c-3.862,6.061 -1.648,16.405 -4.803,22.705c-1.218,2.433 -9.137,3.707 -11.328,5.582c-2.725,2.332 -1.485,6.498 -3.148,8.988c-1.082,1.621 -3.55,1.895 -4.721,3.454c-2.85,3.794 -5.246,10.578 -5.246,15.06l0,7.203l-5.901,1.571c-4.722,1.31 -5.902,2.227 -6.558,5.108c-0.524,1.964 -1.705,4.321 -2.754,5.238c-1.455,1.09 -2.565,7.317 -1.311,9.446c2.023,3.435 10.156,2.429 12.983,4.043c1.708,0.974 1.967,3.536 3.541,4.714c4.802,3.596 8.751,6.332 13.115,10.477c5.086,4.831 16.612,5.871 20.959,11.753l0.049,0.067c2.955,3.999 11.444,5.693 15.713,7.824c2.663,1.33 5.72,2.437 7.869,4.584c0.557,0.556 0.959,2.668 1.312,1.964c4.765,-9.518 -3.817,-18.984 -3.929,-28.427l-0.012,-2.077c-0.353,-29.764 -20.191,-54.208 -20.191,-83.824c-0.021,-1.518 1.288,-13.897 -2.098,-18.727c-1.394,-1.988 -2.028,-5.762 -4.459,-5.762l-0.018,0Zm256.913,-47.145c-3.716,0.081 -5.587,4.901 -8.502,7.202c-9.585,7.568 -16.319,16.076 -24.918,24.883c-16.094,16.483 -36.855,29.871 -55.082,43.871c-13.613,10.457 -23.088,26.768 -36.721,36.669c-0.965,0.642 -4.141,6.455 -1.934,8.512c1.587,1.48 8.156,2.355 10.459,3.274c6.329,2.528 11.334,5.348 16.393,10.084c3.761,3.521 6.357,8.385 9.836,12.179c8.499,9.27 7.209,10.475 15.082,14.406l5.246,2.619c3.193,-1.196 2.242,-4.496 3.934,-6.548c4.524,-5.486 9.395,-10.69 14.427,-15.715c5.423,-5.223 9.694,-16.501 15.704,-20.929l0.067,-0.049c5.839,-4.302 5.778,-16.076 7.835,-22.239c5.995,-17.958 13.702,-34.498 19.672,-52.384c4.052,-12.136 6.219,-24.1 9.181,-36.668c0.095,-0.404 3.689,-9.167 -0.656,-9.167l-0.023,-0Zm-1169.17,57.622c-1.476,0.032 -3.797,7.492 -3.919,7.857c-1.288,3.859 -3.002,7.83 -3.934,11.787c-0.993,4.211 -0.565,8.693 -1.705,12.866c-0.769,2.817 -2.838,1.631 -3.197,4.617c-0.459,3.819 -0.459,22.765 0,26.585c0.158,1.314 4.756,8.301 5.492,9.036c2.657,2.653 3.759,0.77 5.967,3.339c2.881,3.353 7.385,8.179 11.935,9.773c3.312,1.161 6.948,1.062 10.36,1.883l10.492,2.619c0.927,0.309 1.645,1.309 2.623,1.309c2.558,0 4.719,-2.05 7.213,-2.619c1.513,-0.345 3.672,0.464 4.59,-0.786c0.917,-1.248 -5.738,-5.156 -6.557,-5.762c-1.733,-1.281 -4.034,-1.672 -5.722,-3.012c-2.513,-1.997 -3.673,-5.342 -6.081,-7.464c-4.471,-4.185 -6.035,-10.69 -9.181,-15.716c-0.858,-1.371 -2.56,-2.084 -3.393,-3.47c-2.564,-4.267 -2.058,-10.376 -3.787,-14.864c-0.918,-2.383 -3.192,-2.93 -4.049,-5.369c-1.693,-4.817 -3.182,-14.53 -3.197,-19.269l-0,-0.489c-0.01,-3.006 -0.607,-6 -1.311,-8.922c-0.369,-1.531 -1.047,-3.929 -2.623,-3.929l-0.016,-0Zm828.867,53.038c0,-1.175 1.09,-2.119 1.312,-3.274c0.538,-2.804 0.836,-5.659 0.951,-8.512c0.323,-8.07 0.36,-16.151 0.36,-24.227l0,-32.74l-4.59,-0c-7.185,-0 -2.309,5.902 -7.213,9.167c-4.318,3.135 -1.469,4.652 -3.59,8.643c-1.14,2.145 -2.551,0.589 -3.754,2.734c-1.969,3.511 -0.678,5.548 -4.459,8.529c-6.3,4.376 -3.142,10.953 -1.312,16.893c0.522,1.693 1.892,6.964 3.295,8.365c0.482,0.482 3.325,0.856 3.853,1.277c2.245,1.794 2.558,5.288 4.656,7.252c1.093,0.964 2.041,2.114 2.803,3.356c0.964,1.573 0.421,4.035 1.836,5.222c2.442,2.048 5.852,0.272 5.852,-2.685Zm451.828,-820.461l-0.049,-0c-2.969,-0.052 3.302,-4.975 5.401,-7.072c5.081,-5.39 -3.379,-8.238 -3.409,-12.538l-0.001,-0.067c-0.029,-4.172 -9.618,-12.602 -13.114,-15.682c-18.021,-16.87 -60.674,3.171 -82.623,10.477c-7.306,2.432 -16.94,1.141 -23.607,5.238c-2.738,1.683 12.064,13.179 0,15.715c-23.265,4.891 -45.214,-7.778 -69.508,-1.309c-3.985,1.061 -3.465,7.752 -6.557,10.477c-0.072,0.067 -6.545,7.3 -6.558,9.133l0,0.067c-0.007,0.998 -13.015,21.928 -17.049,22.23c-6.036,0.452 -15.726,-16.096 -19.672,-20.299c-14.775,-15.737 -33.067,-29.172 -47.213,-45.181c-21.258,-22.642 9.18,16.223 9.18,16.37l0,7.203l-5.901,-0c-7.601,-0 -14.246,-5.212 -22.069,-5.238l-0.453,-0.001c-12.263,-0.041 -24.514,-13.2 -35.839,-11.786c-20.783,2.594 -38.441,6.749 -60.328,3.929c-11.266,-1.452 -22.097,-5.967 -33.442,-6.548c-6.038,-0.309 -15.241,-1.584 -17.705,3.929c-6.136,13.725 8.464,70.825 9.18,85.778c1.693,35.333 -6.242,32.689 -22.295,63.515c-3.636,6.983 14.978,-4.934 22.295,-7.857c7.473,-2.985 16.314,-1.091 22.514,3.929c4.79,3.878 7.243,10.031 11.584,14.405c14.423,14.533 98.792,106.02 120.394,72.683c9.7,-15.385 16.703,11.735 22.164,14.143c3.917,1.728 8.344,-3.692 10.508,-7.382c10.677,-18.211 -0.301,-26.942 -7.492,-40.811c-1.367,-2.636 6.215,-4.396 5.246,-7.202c-3.887,-11.259 -11.13,-21.101 -15.738,-32.086c-8.956,-21.347 -17.4,-42.93 -24.918,-64.825c-0.448,-1.305 0.691,-5.162 1.312,-3.928c8.755,17.393 15.029,35.95 23.606,53.431c8.486,17.295 16.86,34.777 27.541,50.812c9.837,14.768 21.321,0.401 19.672,-10.607c-3.625,-24.203 -13.228,-32.205 -7.344,-56.444c0.489,-2.015 3.953,2.133 4.721,4.06c2.753,6.906 3.975,14.335 5.509,21.608c1.992,9.452 6.746,58.932 -8.787,58.932l-5.902,16.37c0,6.11 -1.965,29.77 11.672,20.692c10.281,-6.755 -2.061,-16.139 -2.492,-23.442c-0.324,-5.513 8.523,-7.674 10.492,-12.834c9.578,-25.105 15.36,-72.645 40.525,-87.219c5.132,-2.973 -3.009,11.486 -5.115,17.024c-8.374,22.02 -20.832,42.938 -24.918,66.135c-0.02,0.116 -2.818,27.142 8.656,28.156c4.542,0.402 9.736,-0.12 13.377,-2.863c4.708,-3.546 3.053,-29.649 6.951,-36.425c9.291,-16.15 21.122,-30.783 30.032,-47.145c5.527,-10.148 7.809,-21.82 13.115,-32.085c1.774,-3.431 5.57,-5.407 7.869,-8.512c1.452,-1.963 2.933,-8.964 3.279,-6.548c5.523,38.606 -36.021,75.058 -53.771,106.077c-2.162,3.778 0.437,23.168 4.066,25.406c48.526,29.925 107.098,-50.207 132.983,-77.135c11.99,-12.474 30.529,-17.351 45.672,-6.695c13.984,9.84 -22.11,28.945 -23.901,30.268c-7.731,5.71 -15.754,11.018 -23.738,16.369c-1.463,0.981 -6.075,1.672 -4.59,2.62c18.734,11.964 43.514,-0.008 63.41,7.939c4.191,1.674 10.051,4.577 10.032,9.085c-0.016,4.106 -6.512,5.064 -10.098,7.072c-9.535,5.339 -20.115,8.839 -29.189,14.927c-5.221,3.502 -9.204,8.618 -13.172,13.491c-3.015,3.703 -11.532,11.798 -6.819,12.595c3.306,0.56 6.707,-1.142 9.705,-2.642c-0,0 -12.325,15.469 -20.853,19.906c-2.445,1.266 -5.551,0.618 -8.262,0.131c-4.661,-0.838 14.757,-9.24 10.082,-9.997c-11.238,-1.82 -20.705,10.419 -31.984,11.962c-7.475,0.916 -7.869,1.44 -5.114,5.238c2.555,3.402 8.767,-0.401 12.721,1.179l4.197,1.833l-3.541,3.536c-3.017,3.012 -4.197,3.405 -8.394,2.619c-2.623,-0.524 -12.328,-1.179 -21.377,-1.571c-14.426,-0.393 -16.918,-0.917 -18.885,-3.143c-9.109,-9.096 -7.876,4.708 -4.197,7.857c2.492,1.965 6.82,11.786 5.64,12.834c-1.574,1.572 -9.181,-3.012 -18.492,-11.131c-4.984,-4.453 -11.541,-10.084 -14.558,-12.703c-18.318,-15.111 -5.77,13.738 -5.77,21.084l-0,3.274l-4.459,-4.322c-4.91,-4.644 -9.623,-8.218 -12.721,-14.405c-7.894,-15.37 -9.521,11.46 -12.853,15.453c-0.656,0.655 -1.574,7.072 -1.967,14.275c-1.18,19.382 -2.098,31.037 -2.754,34.18c-0.918,3.929 -4.459,4.976 -7.344,2.357c-10.275,-9.052 -0.538,-45.308 -6.951,-59.717c-2.465,-5.929 -2.336,-23.676 -5.902,-18.335c-1.953,3.251 -7.567,-0.777 -11.279,-1.571c-8.177,-2.13 -0.07,-19.635 1.181,-20.43c2.885,-1.702 4.328,-3.405 3.803,-4.583c-0.525,-1.703 -1.049,-1.703 -3.41,-0c-6.035,4.017 -8.711,-0.768 -14.033,7.202c-0.786,1.178 4.248,2.621 4.197,4.191c-0.127,3.938 -0.002,14.469 -2.623,11.525c-4.318,-4.851 -4.556,-17.879 -13.115,-4.846c-3.016,4.453 -6.819,9.822 -8.393,11.786c-2.229,2.882 -3.279,6.286 -4.066,14.406c-3.108,30.649 0.394,29.535 0.394,61.42l-0,22.001l-3.935,0c-2.472,0 -3.874,7.293 -5.245,5.239c-3.076,-4.608 -6.558,-20.863 -6.558,-26.454c-0.229,-2.971 -6.795,-16.867 -13.377,-4.453c-0.787,1.441 -2.623,4.06 -4.065,5.762c-3.935,4.191 -6.164,11.525 -6.164,20.299l-0,7.465l4.983,-0c12.184,-0 26.949,12.725 36.066,20.691c7.738,6.941 15.082,11.525 21.77,13.882c5.64,1.833 6.033,1.833 13.115,-1.833c4.066,-1.965 12.328,-6.679 18.492,-10.477c21.377,-13.096 34.36,-18.334 40.393,-16.239c3.935,1.44 5.377,5.5 2.623,7.596c-7.396,6.33 -16.111,19.321 -22.164,26.977c-4.052,5.261 -9.226,9.481 -12.328,15.453c-1.967,3.405 -5.114,9.168 -7.213,12.703c-2.499,4.369 -7.684,33.647 -14.032,33.133c-3.935,-0.262 -5.509,-1.309 -7.869,-4.845c-0.166,-0.242 -13.509,-31.268 -13.509,3.405l0,4.321l-26.229,0l0,-5.762c0,-3.274 -0.525,-6.286 -1.311,-6.679c-0.787,-0.524 -1.312,1.834 -1.312,6.024l0,6.679l-4.197,-0.786c-5.35,-1.149 -12.055,2.416 -16.393,-0.916c-1.705,-1.441 -2.23,-1.441 -2.623,-0.131c-1.238,2.472 -23.843,2.462 -28.197,6.81c-2.229,1.964 -3.147,2.226 -4.065,1.047c-1.14,-1.626 -22.309,8.957 -12.722,-2.357c11.225,-13.002 -10.139,5.351 -10.491,5.5c-2.651,1.036 -10.829,9.561 -12.197,11.656c-3.672,5.5 -4.59,10.869 -2.23,12.31c6.234,3.112 -6.395,-0.254 -6.557,3.536c-0.4,9.394 7.806,18.041 -1.311,13.489c-1.914,-1.274 -0.177,4.866 1.049,6.81c2.643,4.19 5.448,8.276 8.131,12.441c4.036,6.264 9.644,10.314 10.754,18.072c0.957,8.6 16.887,-7.252 11.803,0c-2.366,3.987 4.13,3.856 1.049,7.334c-2.491,2.488 -2.754,3.536 -1.573,4.322c1.311,0.785 0.787,2.095 -2.099,5.107c-2.098,2.226 -4.196,3.667 -4.721,3.274c-4.558,-4.551 -4.794,18.654 1.625,19.241l0.422,0.02c8.914,0.815 8.567,11.364 12.904,14.396c2.243,1.568 1.282,-5.743 3.41,-7.465c1.255,-1.017 11.387,10.038 11.541,10.084c4.47,1.339 1.698,-5.693 5.245,-3.536c1.705,1.178 6.82,4.06 11.541,6.548c6.737,3.651 16.962,1.958 21.509,8.119c3.355,4.382 16.094,-2.4 19.934,1.179c3.05,2.648 5.682,-1.833 8.131,-1.833c11.882,-0 11.266,1.44 32.131,1.44c9.419,0.059 28.197,11.239 28.197,1.833c-0,-1.309 1.049,-1.702 3.672,-1.309c1.967,0.393 6.82,-0.393 10.754,-1.834c4.722,-1.571 7.476,-1.964 8.131,-1.047c2.436,4.054 5.773,-9.183 10.492,-9.56c2.336,-0.187 -4.171,22.223 3.672,9.691c1.432,-2.287 1.971,-5.22 3.935,-7.072c7.182,-6.328 16.247,-13.068 29.639,-14.406c2.029,-0.202 1.194,5.824 3.148,5.239c2.848,-0.854 8.612,-15.347 11.803,-18.335c21.392,-18.848 -26.28,-24.703 -23.607,-28.811c3.119,-4.791 27.823,-11.733 28.59,-19.905c0.475,-5.527 9.676,-1.226 5.771,-5.37c-1.129,-1.169 -1.964,-5.602 -0.525,-4.845c4.021,2.113 2.276,11.786 6.82,11.786c2.83,0 8.719,-22.025 12.721,-22.525c3.541,-0.393 3.672,-0.786 5.246,-12.834c0.787,-6.81 1.574,-18.989 1.574,-27.109c0.133,-8.379 0.943,-27.561 8.393,-23.703c8.341,4.164 2.293,32.611 6.033,39.026c2.348,4.026 9.021,-2.478 13.64,-3.143c5.952,-0.858 4.607,-1.974 9.442,-6.548c5.787,-5.335 5.784,-15.754 11.148,-21.74c2.098,-2.488 3.803,-5.238 3.934,-6.024c0,-12.766 14.556,2.791 17.836,-8.905c1.031,-3.677 -0.812,-16.748 3.148,-20.43c4.934,-4.548 6.561,-23.004 6.426,-28.942c-0.159,-12.405 24.344,-52.286 10.623,-61.42c-5.8,-3.861 -11.075,8.577 -15.738,13.751c-4.272,4.74 -36.995,27.012 -32.787,30.514l2.886,2.357l-2.886,4.845c-0.142,0.231 -2.79,14.423 -2.885,15.323c-1.133,13.581 -6.904,-5.665 -7.607,-8.12c-0.766,-2.677 0.679,-9 -1.967,-8.119c-2.769,1.082 -6.963,-3.906 -5.901,-6.679c4.845,-12.66 13.556,-23.555 21.639,-34.443c14.636,-19.713 46.311,-47.015 58.361,-70.98c17.864,-35.53 14.624,-51.89 5.901,-90.362c-5.754,-25.379 -4.693,-52.055 -11.147,-77.266c-5.6,-21.871 -11.997,-18.338 -17.049,-39.288c-2.247,-9.313 -1.119,-19.327 -4.03,-28.454c-2.04,-6.396 -12.507,-8.697 -14.331,-16.072c-0.864,-3.493 4.146,-32.61 -3.254,-32.74Zm-298.254,571.115c-1.398,-1.862 -1.536,-4.434 -2.754,-6.418c-0.361,-0.586 -7.325,-7.393 -7.344,-7.464c-1.326,-6.176 -3.375,-1.455 -5.771,2.226c-2.692,4.135 -5.886,4.164 -10.492,-7.334c-0.168,-0.419 8.912,-1.038 9.443,-1.276c2.059,-0.926 4.9,-13.574 8.262,-12.081c7.926,2.77 11.258,-12.456 19.148,-7.203c2.432,1.457 14.944,-0.422 16,4.059c1.849,7.017 14.375,2.79 21.639,2.62c13.228,-0.31 26.375,-2.62 39.607,-2.62c5.917,0 14.422,-3.607 17.704,1.31c1.577,3.148 6.995,0.873 10.492,1.31c3.84,0.479 23.505,2.808 25.574,6.941c5.877,11.737 -11.981,7.042 -9.59,12.752c0.834,1.992 2.704,3.38 4.213,4.927c7.294,7.284 -0.385,10.481 -9.574,5.893c-6.557,-3.405 -14.819,-6.679 -18.492,-7.333c-21.24,-4.028 -42.661,-1.552 -62.95,4.321c-3.453,0.999 -7.95,-0.05 -10.492,2.488c-0.787,0.655 -5.115,1.572 -9.836,1.965c-8.741,0.712 -19.267,8.634 -24.787,0.917Zm207.082,-2.751c-0,-1.325 -1.821,-2.324 -2.853,-2.701c-0.95,-0.347 -1.909,-0.693 -2.901,-0.89c-2.182,-0.432 -7.415,-1.349 -7.361,2.282c0.03,2.061 1.249,2.355 3.154,2.523c1.512,0.133 4.348,0.128 5.977,0.002c1.332,-0.103 2.264,-0.223 3.476,-0.68c0.177,-0.067 0.508,-0.284 0.508,-0.536Zm-243.934,-45.181c-0,-10.711 23.935,-18.362 30.819,-20.298c0,-0 10.492,-2.62 10.492,-2.62c1.166,-1.746 57.851,-1.746 59.016,0c0,0 10.492,2.62 10.492,2.62c12.225,1.683 15.316,1.808 27.541,-0c0,-0 7.869,-2.62 7.869,-2.62c0.524,-0.785 8.393,-1.309 19.147,-1.309l18.23,-0l12.197,6.024c4.937,2.465 10.184,4.592 14.426,8.119c2.419,2.012 2.964,10.002 -0.131,9.43c-7.618,-1.409 -23.078,-8.773 -31.738,-13.096c-11.46,-5.907 -29.517,-1.53 -41.574,-0.131c-4.416,0.512 -11.84,-2.641 -13.246,1.571c-0.593,1.423 -15.712,-0.205 -18.623,-0.262c-13.227,-0.256 -26.875,-1.178 -40,-1.178c-6.571,-0 -16.026,-4.151 -19.672,1.309c-1.725,3.446 -7.404,2.267 -10.885,3.929c-9.921,4.953 -22.116,4.74 -31.869,9.167c-1.967,1.179 -2.491,0.917 -2.491,-0.655Zm-29.115,-9.953c2.692,-17.472 10.125,-36.11 28.065,-43.74c3.148,-1.179 6.689,-2.75 8.131,-3.536c3.154,-1.574 5.514,2.022 8.476,1.555c1.764,-0.278 19.368,-6.797 19.705,-8.66c1.404,-7.779 0.859,-15.788 1.459,-23.67c0.542,-7.125 -3.496,-25.962 1.967,-21.347c1.58,1.435 3.815,-4.219 2.492,-5.893c-2.966,-3.751 -5.479,-0.328 -7.476,-4.715c-3.541,-8.119 -5.114,-13.619 -7.213,-25.144l-0.918,-5.107l-10.754,16.239c-6.033,8.774 -12.328,17.941 -14.295,20.037l-3.279,3.928l0.656,-5.238c1.705,-13.489 1.836,-13.882 8.656,-29.466c5.77,-13.489 8.131,-17.941 17.705,-35.359c6.921,-12.53 14.055,-24.984 19.951,-38.027c1.77,-3.917 5.077,-14.597 -0.804,-8.726c-1.002,0.91 3.955,-20.744 4.066,-20.953c2.754,-5.631 0.262,-5.762 -4.853,-0.393c-4.582,4.881 -19.003,13.219 -24.131,16.37c-12.196,7.596 -33.049,17.025 -33.967,15.453c-0.524,-0.786 -2.492,-1.702 -4.459,-1.964l-3.541,-0.393l3.541,-5.5c3.767,-5.937 7.154,-12.213 9.443,-18.858c1.204,-3.498 -2.961,-5.242 -4.59,-2.489c-1.916,2.976 -9.039,-3.425 -10.623,-0.262c-2.016,4.313 -9.536,0.516 -14.295,0.262c-16.052,-0.855 -39.319,-13.329 -49.968,-23.703c-5.77,-5.632 -11.934,-10.477 -13.77,-11.001c-1.836,-0.393 -6.164,0.393 -10.361,2.095c-9.592,3.513 -11.047,5.071 -20.983,6.417c-3.783,0.513 -8.857,-0.43 -11.148,2.62c-4.347,5.787 1.567,8.643 4.59,13.096c8.322,12.256 13.109,22.285 23.476,33.787c4.842,4.835 11.204,7.953 16.131,12.703c3.803,3.798 8.262,7.465 9.967,8.382c1.244,0.621 4.199,2.553 2.885,3.012c-2.585,0.903 -5.528,-0.328 -8.131,-1.179c-1.77,-0.495 -0.716,3.946 0.262,5.5c2.651,4.212 4.521,7.271 8.656,10.739c3.41,2.75 8.656,7.465 11.672,10.346c7.213,7.072 10.099,8.512 14.951,7.595c3.672,-0.785 4.066,-0.392 6.557,4.846c1.312,3.143 3.279,8.119 4.066,11.001c0.918,2.881 2.098,6.286 2.754,7.464c8.147,16.27 5.509,41.004 3.803,56.051c-2.805,24.623 0,24.137 0,48.717l0,12.834l3.673,-0c2.885,-0 4.065,1.048 6.426,6.155c1.831,3.658 -0.425,13.222 3.41,11.786c0.918,-0.262 1.836,-1.833 1.967,-3.667Zm-29.902,-95.6c-6.538,-6.529 -6.541,-18.593 -15.213,-23.442c-0.988,-0.552 -1.16,1.995 -1.369,3.106c-0.433,2.304 -0.67,4.671 -0.533,7.011c0.267,4.548 2.731,8.913 2.394,13.456c-0.271,3.648 -3.052,3.508 -1.017,7.203c1.443,2.75 1.443,4.19 0,8.643c-1.767,5.295 0.832,6.989 0.132,12.048c-1.645,11.881 -1.08,14.184 3.934,29.204c2.885,9.036 7.475,20.037 10.098,24.752l4.853,8.381l0.393,-43.348l0.263,-43.347l-3.935,-3.667Zm243.672,-42.431c-0.131,-7.203 -0.262,-15.715 -0.262,-18.989c-0.131,-4.322 -1.049,-7.072 -3.803,-10.608c-0.409,-0.548 -3.464,-4.473 -3.41,-6.122c0.056,-1.741 3.522,-0.825 3.672,-0.819c3.333,0.152 3.282,0.291 6.426,-0.654c0.764,-0.23 1.874,-1.036 2.771,-0.41c1.216,0.851 2.303,1.897 3.262,3.029c2.098,2.357 4.197,3.798 5.377,3.274c2.806,-1.051 7.907,4.218 8.918,4.845c3.177,1.971 4.089,2.322 7.606,0.917c2.452,-1.064 3.607,-1.549 5.771,0c2.652,1.899 2.455,4.997 -1.312,4.191c-4.123,-0.618 -2.901,2.65 -4.754,5.402c-1.047,1.555 -2.282,2.995 -3.639,4.289c-3.896,4.008 -6.979,6.274 -11.426,1.833c-0.95,-0.948 -1.772,-2.06 -2.344,-3.274c-1.564,-2.949 -6.753,-6.941 -7.689,-0.9c-0.986,6.367 0.407,17.039 -2.934,23.294c-1.836,3.667 -1.968,3.143 -2.23,-9.298Zm242.874,-98.564l0.022,-0.62c0.104,-1.457 4.296,-3.051 5.235,-3.619c3.277,-1.983 6.324,-4.324 9.443,-6.548c5.006,-3.571 10.229,-15.006 10.229,-20.954c0,-6.628 -6.744,-12.256 -11.147,-15.715c-11.802,-9.271 -22.27,-21.655 -16.394,-37.192c7.15,-18.905 21.252,-31.613 30.164,-49.241c2.218,-4.386 -4.604,-8.827 -7.869,-8.474c-5.434,0.588 -16.784,13.407 -17.049,13.712c-22.147,25.501 -30.717,53.171 -12.705,85.042c2.132,3.773 5.046,7.177 8.392,9.935c3.175,2.618 12.991,2.337 10.87,5.862c-4.497,7.476 -9.43,14.703 -14.711,21.648c-3.699,4.865 -8.475,8.847 -12.174,13.711c-2.788,3.667 -5.815,7.399 -7.213,11.787c-1.713,5.376 6.658,0.554 7.213,-0c4.11,-4.104 5.084,-10.847 9.836,-14.406c1.452,-1.087 7.695,-2.634 7.858,-4.928Zm-196.71,-157.462c-0,-20.163 15.584,-37.206 23.688,-55.674c6.462,-14.724 12.169,-29.768 18.279,-44.641c0.161,-0.392 2.354,-7.159 4.459,-7.071c0.912,0.038 1.035,1.742 0.787,2.619c-3.491,12.343 -5.713,11.45 -8.852,23.959c-1.581,6.299 -0.883,13.101 -2.951,19.257c-5.759,17.142 -17.236,31.159 -23.883,47.809c-2.392,5.989 -0.637,14.664 -5.877,18.432c-3.961,2.848 -5.65,-1.76 -5.65,-4.69Zm92.03,-94.287c1.473,0.043 1.944,0.957 2.05,2.416c0.306,4.204 0.349,8.425 0.346,12.641c-0.006,9.109 -1.874,17.235 -2.623,26.192c-0.31,3.716 2.266,9.828 -1.238,11.118l-0.146,0.027c-1.126,0.414 -1.459,18.713 -1.616,20.318c-0.115,1.18 -0.662,1.931 -1.852,1.931c-1.312,-0.131 -3.148,-0.916 -3.935,-1.964c-1.897,-2.131 -1.038,-5.619 -1.242,-8.463c-0.387,-5.43 -0.482,-10.878 -0.528,-16.321c-0.097,-11.567 0.631,-22.561 4,-33.493c1.101,-3.573 2.982,-6.834 3.934,-10.477c0.265,-1.012 -0.056,-2.223 0.525,-3.094c0.417,-0.625 1.345,-0.835 2.098,-0.835l0.227,0.004Z" style="fill:#fff;"/><path d="M2166.39,2163.28l0,-2163.28l-2166.39,0l-0,2163.28l2166.39,-0Zm-73.782,-2089.61l0,2015.93c-255.816,0 -1763.01,0 -2018.82,0c0,-255.449 0,-1760.48 0,-2015.93c276.887,0 2018.82,0 2018.82,0l0,0Z" style="fill:#fff;"/></g></g></svg>