<?xml version="1.0" standalone="no"?>
<!DOCTYPE svg PUBLIC "-//W3C//DTD SVG 20010904//EN"
 "http://www.w3.org/TR/2001/REC-SVG-20010904/DTD/svg10.dtd">
<svg version="1.0" xmlns="http://www.w3.org/2000/svg"
 width="1080.000000pt" height="1080.000000pt" viewBox="0 0 1080.000000 1080.000000"
 preserveAspectRatio="xMidYMid meet">
<metadata>
Created by potrace 1.14, written by Peter Selinger 2001-2017
</metadata>
<g transform="translate(0.000000,1080.000000) scale(0.100000,-0.100000)"
fill="#000000" stroke="none">
<path d="M6510 9940 c0 -6 23 -40 50 -76 78 -102 76 -104 -82 -104 -214 0
-614 -19 -738 -35 -133 -17 -441 -20 -614 -4 -78 7 -122 7 -129 0 -13 -13 89
-120 160 -167 75 -50 69 -65 -35 -85 -51 -10 -91 -24 -105 -36 -12 -12 -38
-29 -57 -38 -19 -10 -149 -133 -290 -274 -206 -207 -265 -262 -307 -281 -29
-13 -53 -27 -53 -31 0 -20 48 -39 97 -39 28 0 55 -4 58 -10 3 -5 -17 -94 -44
-197 -28 -104 -53 -204 -56 -224 -6 -34 -5 -36 17 -32 14 3 34 -4 50 -16 l27
-21 -6 -128 c-7 -152 22 -417 67 -612 25 -110 34 -175 31 -218 -1 -9 -12 -13
-34 -11 -40 4 -90 -29 -113 -74 -24 -45 -15 -354 14 -487 54 -245 147 -426
297 -574 55 -55 76 -84 86 -117 13 -48 22 -762 10 -822 -8 -36 2 -32 -256
-112 -92 -28 -214 -77 -315 -125 -294 -139 -346 -143 -441 -29 -51 61 -96 84
-206 103 -101 18 -131 31 -142 58 -13 35 -40 54 -115 82 -80 31 -127 32 -204
9 -49 -15 -97 -18 -327 -18 -203 1 -280 4 -310 15 -51 17 -103 14 -179 -11
-99 -33 -237 -99 -289 -137 l-49 -35 -176 -6 c-196 -7 -186 -4 -332 -102 -31
-20 -92 -54 -135 -75 l-80 -39 -245 -6 c-305 -8 -326 -12 -427 -76 -29 -18
-65 -38 -80 -44 -16 -5 -52 -22 -80 -36 l-53 -26 0 -50 c0 -57 -13 -61 115 38
167 129 159 127 526 129 275 1 288 2 311 22 13 11 37 26 53 33 17 7 57 29 90
50 186 117 190 119 325 135 69 8 157 17 195 21 39 4 121 24 184 45 89 30 122
47 151 75 49 48 90 53 360 42 226 -8 357 -3 440 19 108 28 131 22 279 -65 119
-71 141 -80 200 -87 36 -3 77 -12 91 -19 51 -27 134 -136 179 -238 60 -133
201 -600 251 -829 39 -180 37 -214 -9 -245 -50 -34 -125 -55 -217 -60 -110 -7
-119 2 -110 111 11 143 -48 464 -98 532 -12 16 -15 12 -26 -39 -8 -32 -17 -54
-22 -49 -15 15 -39 205 -45 357 -5 138 -4 155 17 216 28 84 21 100 -65 141
-94 43 -104 39 -138 -57 -22 -62 -30 -105 -34 -187 -4 -79 -3 -108 6 -108 6 0
17 11 23 25 21 46 19 48 91 -155 43 -120 73 -252 82 -355 3 -44 20 -141 37
-215 19 -85 31 -165 32 -216 1 -71 -2 -85 -26 -121 -44 -66 -124 -92 -334
-109 l-82 -6 -15 89 c-9 48 -19 108 -22 133 -4 25 -17 86 -30 135 -13 50 -26
113 -30 140 -9 71 -36 198 -43 210 -4 5 -9 -17 -12 -50 l-5 -60 -14 45 c-7 25
-26 79 -41 120 -44 114 -45 120 -15 191 51 123 51 121 17 181 -28 49 -30 58
-20 90 15 49 -2 108 -48 171 -42 57 -99 87 -184 94 -79 7 -127 -10 -147 -53
-9 -18 -14 -36 -11 -39 3 -3 29 7 58 22 53 27 133 37 174 20 16 -7 13 -13 -31
-60 -84 -88 -147 -219 -117 -242 14 -11 107 -244 148 -370 75 -230 194 -762
177 -793 -24 -45 -182 -103 -286 -106 -75 -1 -109 18 -136 80 -11 24 -37 74
-59 111 -55 96 -109 232 -137 343 -22 91 -44 132 -60 116 -4 -4 1 -37 11 -74
25 -89 31 -141 17 -155 -8 -8 -11 -4 -11 14 0 14 -22 90 -49 169 -27 80 -52
170 -55 201 l-7 56 33 9 c30 9 33 13 36 55 3 49 -28 140 -88 259 -17 33 -30
62 -30 66 0 3 15 -5 34 -20 39 -29 48 -20 32 32 -13 43 -82 122 -107 122 -12
0 -71 -53 -148 -132 -135 -137 -150 -163 -129 -218 11 -30 22 -16 32 43 8 41
32 59 48 36 5 -8 7 -45 5 -83 -5 -84 5 -125 38 -156 29 -28 49 -90 66 -207 8
-60 19 -95 40 -129 16 -25 36 -77 44 -114 8 -38 38 -126 66 -197 39 -95 53
-145 57 -195 4 -63 3 -68 -24 -95 -16 -16 -74 -53 -129 -82 -55 -30 -108 -61
-118 -69 -13 -12 -26 -13 -55 -6 -32 8 -42 18 -69 69 -29 53 -201 476 -218
532 -3 11 -12 26 -20 33 -12 10 -13 1 -8 -59 3 -39 3 -71 1 -71 -3 0 -32 45
-63 100 -62 109 -80 175 -52 198 10 9 17 10 22 2 22 -36 43 25 51 155 7 101
20 165 34 165 6 0 10 9 10 20 0 18 -7 20 -55 20 -39 0 -59 5 -72 18 -10 10
-48 33 -85 50 -117 57 -140 115 -67 173 47 37 120 59 197 59 70 0 102 15 195
89 120 97 98 105 -73 26 -52 -24 -138 -60 -190 -80 -165 -62 -239 -126 -276
-237 -18 -54 -21 -117 -14 -260 5 -85 -2 -116 -20 -88 -5 8 -26 56 -46 105
-34 82 -37 99 -38 192 l-1 102 46 48 c105 111 81 109 -31 -2 -57 -56 -74 -81
-101 -147 -18 -44 -38 -82 -46 -85 -8 -3 -48 0 -89 7 l-75 13 -80 -87 c-45
-47 -85 -83 -91 -80 -21 14 0 90 46 165 25 42 46 81 46 86 0 6 16 30 35 54 19
24 35 53 35 63 0 17 -6 18 -56 13 -31 -3 -77 -17 -102 -31 -26 -13 -89 -45
-139 -70 l-93 -46 0 -1188 0 -1187 50 -18 c28 -10 50 -22 50 -28 0 -6 21 -20
48 -31 26 -12 72 -37 102 -58 109 -72 281 -109 517 -110 78 0 95 -3 110 -19
10 -11 50 -79 88 -151 39 -73 94 -158 123 -192 30 -34 58 -73 64 -87 5 -14 14
-78 18 -141 10 -133 41 -286 103 -515 l44 -160 4371 -3 4372 -2 0 1542 0 1543
-268 97 c-358 129 -408 144 -539 162 -62 9 -127 23 -145 32 -18 9 -87 70 -153
134 -85 84 -145 132 -205 168 -47 27 -93 59 -104 71 -10 11 -41 28 -70 37 -56
18 -130 57 -161 85 -11 10 -81 46 -155 79 -251 114 -327 158 -409 234 -42 40
-97 86 -123 104 -100 69 -293 150 -524 222 -148 46 -143 41 -138 158 7 143 31
327 64 497 46 238 79 443 86 538 7 84 8 87 31 87 99 0 193 128 282 383 28 80
31 101 31 206 0 76 7 158 21 232 24 131 22 217 -6 273 -28 55 -48 65 -86 43
-58 -33 -60 -13 -24 202 43 257 55 370 65 586 13 300 26 352 113 469 112 148
111 184 -2 123 l-69 -37 -6 26 c-4 14 -6 81 -5 147 1 107 -2 133 -26 212 -30
100 -41 119 -49 84 -21 -103 -32 -141 -51 -185 -45 -101 -59 -79 -75 120 -6
75 -22 183 -35 239 -14 56 -25 110 -25 120 0 25 -19 21 -24 -5 -3 -13 -7 -53
-9 -90 -5 -110 -17 -105 -85 34 -33 67 -66 143 -74 168 -7 25 -17 44 -23 42
-24 -6 -24 -59 0 -151 13 -53 22 -98 19 -100 -13 -13 -38 20 -65 83 -43 100
-53 110 -59 55 -6 -56 -27 -61 -84 -22 -22 16 -81 52 -130 79 -49 27 -112 70
-141 95 -29 25 -68 56 -86 69 -19 13 -52 40 -74 60 -64 59 -295 230 -311 230
-8 0 -14 -5 -14 -10z m752 -1827 c23 -16 53 -51 67 -76 24 -45 24 -47 7 -66
-14 -15 -15 -24 -7 -40 6 -11 11 -52 11 -92 0 -70 2 -75 34 -109 31 -31 36
-44 45 -113 7 -56 20 -100 46 -155 49 -100 52 -111 75 -298 11 -88 29 -205 40
-258 11 -54 20 -124 20 -155 0 -125 -60 -251 -188 -394 -186 -210 -272 -326
-272 -369 0 -10 9 -22 20 -28 11 -6 20 -19 20 -30 0 -25 19 -74 26 -67 9 9 32
120 27 132 -2 7 22 35 54 61 32 27 84 75 115 108 49 50 60 57 73 46 24 -20 18
-81 -19 -182 -18 -51 -36 -122 -40 -157 -4 -36 -14 -77 -22 -92 -8 -16 -17
-52 -22 -81 -7 -52 -8 -53 -45 -58 -28 -4 -41 -12 -52 -32 -8 -16 -22 -40 -30
-55 -8 -16 -15 -32 -15 -38 -1 -22 -47 -63 -88 -78 -50 -20 -48 -24 -57 88 -7
85 -19 113 -41 94 -15 -12 -21 -50 -30 -192 -5 -77 -10 -102 -24 -115 -10 -10
-28 -39 -39 -65 -22 -51 -36 -59 -46 -26 -6 19 -9 18 -43 -19 -21 -22 -61 -52
-90 -67 -28 -16 -50 -31 -46 -34 3 -3 33 -19 67 -36 77 -37 81 -53 31 -131
-45 -71 -46 -72 -51 -56 -13 35 -133 -19 -166 -76 l-22 -37 -3 33 c-4 36 -12
40 -29 13 -8 -12 -34 -23 -77 -32 -36 -7 -66 -17 -66 -22 0 -10 -28 -7 -125
13 -37 7 -103 10 -180 6 -89 -4 -127 -2 -141 8 -10 7 -39 18 -63 25 -25 7 -55
20 -68 28 -18 12 -27 13 -35 5 -9 -9 -19 -5 -40 15 -27 26 -29 26 -42 8 -13
-18 -14 -17 -30 14 -9 17 -28 36 -41 41 -21 8 -25 16 -25 52 0 35 4 45 23 53
12 6 22 18 22 27 0 9 3 19 7 23 6 6 -1 45 -9 45 -2 0 -13 -5 -23 -10 -16 -9
-22 -5 -35 20 -8 16 -33 55 -55 86 -39 56 -49 84 -31 84 5 0 7 18 4 40 -5 33
-3 40 11 40 10 0 14 4 11 10 -13 21 30 76 114 145 l24 20 -12 -22 c-15 -29 -9
-29 95 -2 46 13 113 22 161 23 79 1 83 2 83 24 0 12 5 22 10 22 6 0 10 -11 10
-25 0 -24 2 -25 64 -25 l65 0 3 47 c2 25 8 48 15 50 7 3 23 -14 38 -36 27 -43
58 -54 70 -23 4 9 18 48 31 86 13 38 33 84 44 103 22 38 118 161 164 211 28
30 29 33 13 49 -23 23 -64 9 -209 -72 -65 -36 -124 -65 -133 -65 -26 0 -74 29
-163 97 -53 40 -100 67 -129 74 l-45 12 4 54 c4 40 12 62 34 90 17 20 35 38
41 40 17 6 33 -31 49 -105 7 -36 16 -67 18 -69 2 -3 14 5 25 16 20 20 21 32
21 233 0 230 4 249 65 323 l25 30 25 -30 24 -30 1 32 c0 17 -5 35 -10 38 -16
10 -3 24 37 40 34 14 60 12 37 -3 -18 -12 -34 -49 -34 -81 0 -25 5 -32 28 -38
15 -4 32 -6 39 -5 7 2 15 -10 19 -25 3 -15 8 -35 11 -43 3 -8 9 -79 12 -157 5
-107 10 -146 21 -157 27 -27 37 -2 49 119 13 129 37 225 57 225 7 0 22 -15 33
-34 12 -19 33 -42 48 -51 l26 -17 -8 43 c-18 101 -10 107 65 43 69 -59 129
-99 136 -91 4 3 -3 21 -15 40 -19 31 -29 77 -16 77 3 0 16 -6 28 -14 30 -19
214 -31 233 -15 23 19 16 28 -23 31 -38 3 -60 28 -25 28 10 0 44 14 75 30 31
17 67 30 79 30 22 0 22 -1 -7 -25 -29 -24 -29 -24 -7 -25 15 0 43 18 75 49 46
44 49 49 24 44 -15 -3 -27 -1 -27 4 0 5 24 35 53 67 39 43 75 68 147 104 54
27 96 55 98 64 6 34 -54 52 -193 57 -184 8 -187 12 -68 91 119 79 173 126 173
151 0 24 -40 50 -89 56 -68 9 -111 -21 -277 -195 -240 -250 -370 -319 -504
-266 -32 13 -42 23 -50 53 -20 72 -19 74 115 261 46 63 94 138 108 165 24 48
52 163 42 173 -11 11 -58 -60 -90 -138 -20 -47 -70 -138 -111 -203 -69 -107
-77 -123 -85 -189 -13 -101 -15 -106 -55 -114 -50 -9 -67 11 -72 83 -5 72 9
121 89 309 34 80 58 148 54 152 -11 11 -72 -65 -99 -122 -13 -28 -40 -107 -60
-176 -27 -88 -46 -134 -67 -158 -25 -28 -27 -36 -18 -54 6 -11 15 -34 19 -50
7 -24 5 -31 -16 -44 -19 -13 -27 -14 -39 -4 -30 25 -11 171 26 190 9 5 22 24
28 41 24 69 5 295 -30 361 -12 22 -12 22 -20 3 -13 -35 -10 -74 16 -180 26
-106 25 -136 -8 -164 -9 -7 -24 -10 -34 -7 -34 11 -136 196 -238 434 -27 63
-51 109 -53 103 -6 -19 104 -304 164 -423 32 -63 34 -72 21 -86 -14 -13 -12
-20 14 -67 41 -73 35 -142 -16 -185 -18 -15 -15 -18 -81 67 l-21 27 -37 -32
c-45 -40 -81 -41 -156 -6 -91 42 -196 128 -368 300 -156 157 -164 164 -203
164 -23 0 -61 -11 -90 -26 -28 -14 -53 -23 -56 -20 -3 2 18 45 47 95 68 118
71 153 36 372 -16 96 -26 191 -24 229 l3 65 59 3 c32 2 89 -4 127 -12 81 -19
180 -20 300 -4 86 11 89 11 147 -15 59 -27 116 -42 200 -54 35 -5 42 -3 42 12
0 9 -13 34 -28 54 -16 20 -33 43 -37 51 -14 24 232 -210 286 -272 28 -32 57
-58 64 -58 14 0 135 170 135 189 0 19 51 24 159 16 134 -11 211 -9 223 3 6 6
4 21 -6 40 -18 34 -19 34 54 47 19 3 89 24 155 45 155 50 151 49 213 46 40 -2
62 -10 94 -33z m639 -853 c10 -6 19 -16 19 -22 0 -6 -27 -50 -59 -98 -131
-193 -133 -232 -12 -345 39 -36 51 -55 51 -77 0 -53 -31 -94 -115 -153 -31
-22 -54 -45 -90 -90 -13 -16 -27 -27 -31 -23 -11 12 11 53 54 100 45 50 102
132 102 147 0 6 -11 13 -25 17 -35 9 -69 57 -94 131 -26 78 -26 124 -2 196 24
70 64 129 125 185 51 47 50 46 77 32z m-2706 -584 c119 -95 216 -131 333 -123
33 3 63 2 66 0 6 -6 -12 -47 -41 -95 -23 -38 -18 -48 24 -48 24 0 171 77 240
126 34 24 64 44 66 44 3 0 1 -19 -4 -42 -6 -23 -7 -54 -4 -69 5 -21 -9 -57
-66 -166 -138 -262 -174 -348 -167 -393 2 -18 16 -4 68 71 l65 94 11 -50 c16
-71 31 -105 49 -111 8 -4 15 -15 15 -26 0 -10 -4 -16 -10 -13 -6 4 -10 -29
-10 -92 0 -54 -3 -108 -6 -120 -7 -26 -68 -53 -121 -53 -44 0 -114 -39 -142
-79 -12 -16 -31 -61 -44 -100 -23 -75 -37 -90 -37 -42 0 29 -17 55 -42 63 -10
4 -13 62 -11 264 l2 259 -32 85 c-27 72 -36 86 -57 88 -29 4 -67 32 -133 96
-51 49 -59 73 -27 78 16 2 5 15 -55 62 -57 45 -91 82 -145 162 -73 107 -79
134 -31 135 14 0 58 11 96 24 39 12 73 23 76 24 4 1 37 -23 74 -53z m121 -754
c9 -20 25 -49 35 -64 17 -23 19 -47 19 -240 l-1 -213 -24 46 c-59 113 -69 162
-70 346 -2 183 5 202 41 125z m2068 -709 c3 -21 8 -108 12 -193 3 -85 11 -161
16 -167 6 -7 42 -31 82 -52 95 -53 158 -101 266 -204 90 -85 90 -85 90 -135 0
-63 -39 -216 -80 -312 -18 -41 -43 -104 -56 -138 -13 -35 -35 -78 -48 -95 -13
-18 -31 -48 -41 -67 -18 -36 -133 -173 -189 -224 -45 -41 -203 -116 -244 -116
l-35 0 6 53 c3 28 13 104 21 167 25 184 34 346 28 484 -4 111 -7 126 -17 105
-13 -25 -40 -171 -50 -274 -10 -106 -16 -130 -25 -115 -8 12 -10 12 -14 0 -10
-31 -36 -303 -36 -379 l0 -78 -72 -31 c-87 -37 -130 -48 -223 -57 -38 -3 -95
-13 -126 -21 -31 -8 -71 -14 -88 -14 -42 0 -41 19 9 117 29 57 42 98 50 155 6
52 23 106 49 165 22 48 58 151 80 229 101 350 333 886 457 1054 51 70 152 180
165 180 4 0 10 -17 13 -37z m-529 -103 c4 -6 -7 -10 -24 -10 -17 0 -31 5 -31
10 0 6 11 10 24 10 14 0 28 -4 31 -10z m-85 -734 c0 -33 -54 -220 -90 -316
-23 -58 -49 -134 -59 -170 -19 -67 -58 -129 -141 -225 -25 -28 -50 -60 -55
-70 -10 -16 -14 -16 -37 -4 -15 8 -54 46 -87 85 -47 57 -72 76 -116 95 -34 14
-55 29 -55 39 0 23 190 206 305 293 55 42 147 123 205 181 100 101 130 122
130 92z m-1691 -338 c-1 -84 -4 -164 -8 -178 -8 -27 -41 -41 -41 -17 0 8 -14
30 -31 48 -18 19 -38 53 -46 76 -14 41 -14 42 21 95 20 29 36 57 36 61 0 17
42 67 56 67 12 0 14 -26 13 -152z m421 103 c5 -11 12 -55 15 -98 4 -52 19
-117 46 -199 22 -66 47 -163 55 -215 9 -52 18 -108 21 -126 l5 -31 -64 33
c-124 64 -176 96 -219 134 -25 21 -56 41 -69 43 -17 2 -26 10 -28 25 -5 32 24
80 51 87 19 4 25 14 30 46 6 48 56 126 95 151 29 17 43 62 44 142 1 32 4 33
18 8z m-4545 -111 c8 -66 43 -159 90 -239 33 -55 54 -78 101 -107 18 -11 17
-13 -7 -22 -42 -17 -158 16 -206 58 -61 54 -65 63 -60 143 5 82 18 144 43 206
20 51 28 42 39 -39z m4705 -206 c0 -7 9 -19 19 -26 11 -8 36 -43 56 -79 20
-35 46 -74 57 -86 11 -11 43 -63 73 -115 56 -99 57 -124 6 -111 -30 7 -121 51
-121 58 0 23 -46 175 -61 202 -10 18 -19 41 -19 51 0 9 -7 26 -16 37 -19 26
-37 92 -28 107 8 12 34 -17 34 -38z"/>
<path d="M6971 7754 c-29 -71 -78 -175 -107 -231 -62 -115 -84 -208 -48 -201
13 2 22 17 30 49 6 24 38 97 71 161 39 76 63 135 67 168 4 29 16 76 27 106 11
30 19 60 17 66 -3 7 -28 -46 -57 -118z"/>
<path d="M7232 7769 c-33 -107 -37 -311 -6 -323 10 -4 14 4 14 27 0 18 4 46 9
63 5 17 12 85 16 152 6 100 5 122 -6 122 -8 0 -20 -18 -27 -41z"/>
<path d="M6550 6208 c14 -30 20 -67 20 -123 1 -86 18 -80 19 7 1 26 6 50 12
54 6 3 23 -6 39 -21 l29 -27 46 45 c44 44 47 65 6 52 -18 -6 -95 27 -107 46
-3 5 -23 9 -44 9 l-39 0 19 -42z"/>
<path d="M5845 5439 c-98 -22 -195 -73 -195 -103 0 -11 9 -11 53 1 118 32 163
46 174 55 8 6 67 7 152 3 89 -5 200 -3 303 5 150 12 166 11 203 -5 97 -42 158
-64 165 -60 5 3 6 14 3 26 -4 13 -31 33 -76 55 -68 35 -72 36 -161 31 -50 -3
-116 -10 -146 -16 -43 -8 -74 -7 -140 4 -93 16 -271 18 -335 4z"/>
<path d="M5835 5270 c-10 -11 -26 -20 -36 -20 -10 0 -25 -13 -34 -30 -9 -17
-24 -30 -34 -30 -25 0 -32 -10 -20 -31 12 -24 35 -24 48 -2 5 10 11 16 13 13
73 -92 83 -101 102 -97 12 3 82 19 156 37 182 43 306 45 397 6 34 -14 69 -26
78 -26 19 0 19 20 0 46 -20 26 -19 31 11 38 19 5 25 12 22 29 -4 25 -58 45
-129 46 -25 1 -50 6 -55 11 -8 8 -67 7 -192 -1 -161 -11 -184 -11 -199 3 -10
9 -39 19 -64 22 -38 6 -48 3 -64 -14z"/>
</g>
</svg>
