<?xml version="1.0" encoding="UTF-8" standalone="no"?><!DOCTYPE svg PUBLIC "-//W3C//DTD SVG 1.1//EN" "http://www.w3.org/Graphics/SVG/1.1/DTD/svg11.dtd"><svg width="100%" height="100%" viewBox="0 0 5334 1080" version="1.1" xmlns="http://www.w3.org/2000/svg" xmlns:xlink="http://www.w3.org/1999/xlink" xml:space="preserve" xmlns:serif="http://www.serif.com/" style="fill-rule:evenodd;clip-rule:evenodd;stroke-linejoin:round;stroke-miterlimit:2;"><g><g><path d="M1080.75,1079.17l-270.187,-0l-0,-611.874l-182.192,315.103c0,-0 -175.991,-0 -175.991,-0l-182.192,-315.103l0,611.874l-270.187,-0l-0,-1079.17l319.28,0l221.094,382.386l221.095,-382.386l319.28,0l-0,1079.17Z" style="fill:#fff;"/><rect x="3334.11" y="0" width="270.187" height="1079.17" style="fill:#fff;"/><path d="M2539.76,467.293l-0,611.874l-41.731,-0l-228.457,-391.713l0,-687.454l319.28,-0l353.784,611.874l-0,-611.874l270.187,-0l-0,1079.17c-0,-0 -319.28,-0 -319.28,-0l-353.783,-611.874Z" style="fill:#fff;"/><path d="M1597.85,0l154.627,0l623.971,1079.17l-319.28,-0l-382.004,-660.683l-382.005,660.683l-90.823,-0l0,-395.12l395.514,-684.047Z" style="fill:#fff;"/><path d="M4121.4,0l154.628,0l623.97,1079.17l-319.28,-0l-382.004,-660.683l-382.005,660.683l-90.823,-0l0,-395.12l395.514,-684.047Z" style="fill:#fff;"/><path d="M4709.36,539.583c-0,0 311.985,-539.583 311.985,-539.583l311.985,0l-311.985,539.583c0,0 311.985,539.584 311.985,539.584l-311.985,-0c0,-0 -311.985,-539.584 -311.985,-539.584Z" style="fill:#fff;"/></g></g></svg>
