<?xml version="1.0" encoding="UTF-8" standalone="no"?><!DOCTYPE svg PUBLIC "-//W3C//DTD SVG 1.1//EN" "http://www.w3.org/Graphics/SVG/1.1/DTD/svg11.dtd"><svg width="100%" height="100%" viewBox="0 0 4267 2500" version="1.1" xmlns="http://www.w3.org/2000/svg" xmlns:xlink="http://www.w3.org/1999/xlink" xml:space="preserve" xmlns:serif="http://www.serif.com/" style="fill-rule:evenodd;clip-rule:evenodd;stroke-linejoin:round;stroke-miterlimit:2;"><g><path d="M4211.8,2162.42l-21.016,140.211c-3.01,20.074 -106.192,693.534 -435.031,862.899c-333.794,171.917 -264.335,-895.723 -775.979,-745.94c-511.654,149.831 -1347.45,1374.34 -1963.29,829.086c-615.797,-545.242 -1525.1,-92.723 -1525.1,-92.723l32.414,-216.265c0,0 950.352,-462.869 1586.15,114.218c635.756,577.08 1416.22,-663.172 1908.63,-794.445c492.408,-131.227 413.86,887.235 748.595,720.031c334.694,-167.251 430.186,-843.098 444.619,-817.072Z" style="fill:#fff;fill-rule:nonzero;"/><path d="M4300.16,1572.91l-22.382,149.335c-57.708,-104.195 -135.67,524.815 -473.204,678.066c-337.581,153.244 -231.702,-717.847 -666.363,-642.195c-434.668,75.699 -1049.25,1363.03 -1744.85,690.535c-695.552,-672.537 -1769.17,-178.725 -1769.17,-178.725l33.848,-225.831c0,-0 1114.66,-504.117 1830.18,200.212c715.518,704.33 1274.86,-598.735 1690.24,-655.884c415.429,-57.142 300.457,764.817 638.933,616.276c338.526,-148.577 410.63,-762.009 482.77,-631.789Z" style="fill:#fff;fill-rule:nonzero;"/><path d="M4344.74,1275.5l-22.254,148.485c-86.573,-156.246 -152.82,441.605 -492.286,585.469c-339.472,143.911 -215.363,-628.905 -611.553,-590.321c-396.15,38.634 -900.152,1357.4 -1635.63,621.236c-735.442,-736.119 -1891.19,-221.703 -1891.19,-221.703l33.723,-224.985c0,-0 1196.84,-524.76 1952.24,243.195c755.354,767.948 1204.11,-566.505 1581.02,-586.586c376.875,-20.131 243.712,703.603 584.13,564.359c340.411,-139.197 400.851,-721.461 501.799,-539.149Z" style="fill:#fff;fill-rule:nonzero;"/><path d="M4389.06,979.784l-22.133,147.678c-115.377,-208.381 -169.997,358.252 -511.315,492.833c-341.357,134.53 -199.108,-540.024 -556.743,-538.451c-357.682,1.567 -751.086,1351.68 -1526.41,551.935c-775.362,-799.786 -2013.25,-264.723 -2013.25,-264.723l33.596,-224.132c0,-0 1278.98,-545.41 2074.26,286.167c795.283,831.578 1133.4,-534.267 1471.8,-517.287c338.403,16.937 187.01,642.393 529.314,512.532c342.31,-129.907 391.075,-680.96 520.88,-446.552Z" style="fill:#fff;fill-rule:nonzero;"/><path d="M4433.13,685.765l-22.002,146.786c-144.237,-260.433 -187.146,275.042 -530.395,400.236c-343.25,125.194 -182.763,-451.126 -501.93,-486.62c-319.128,-35.443 -601.987,1346.05 -1417.19,482.683c-815.203,-863.363 -2135.26,-307.702 -2135.26,-307.702l33.474,-223.33c0,0 1361.15,-566.007 2196.27,329.19c835.163,895.203 1062.69,-502.033 1362.62,-448.025c299.881,54.044 130.302,581.232 474.506,460.658c344.192,-120.53 381.239,-640.378 539.901,-353.876Z" style="fill:#fff;fill-rule:nonzero;"/><path d="M4448.16,585.483l-7.573,50.521c-144.231,-260.48 -200.192,192.49 -543.392,293.873c-330.433,97.63 -193.419,-383.097 -486.37,-436.699c-314.315,-58.404 -545.465,1186.1 -1373.1,422.134c-844.669,-779.642 -2160.31,-334.904 -2160.31,-334.904l17.704,-118.128c0,0 1263.87,-327.188 2124.34,340.625c814.397,632.062 1054.67,-458.295 1383.58,-396.29c285.918,53.873 182.316,488.271 498.28,412.748c342.889,-81.909 417.023,-468.244 546.836,-233.88Z" style="fill:#fff;fill-rule:nonzero;"/><path d="M4461.4,497.132l-5.461,36.439c-115.381,-208.338 -206.906,111.94 -550.28,173.891c-300.844,54.246 -231.233,-335.142 -510.139,-388.832c-343.379,-66.096 -600.457,871.936 -1394.1,370.436c-884.225,-558.73 -2088.37,-346.387 -2088.37,-346.387l15.601,-104.085c-0,0 1135.02,-97.996 2052.4,352.104c764.161,374.928 1046.75,-414.865 1404.59,-344.592c271.904,53.417 236.888,398.986 522.005,364.873c344.557,-41.199 452.806,-296.155 553.757,-113.847Z" style="fill:#fff;fill-rule:nonzero;"/><path d="M4474.18,411.871l-6.842,45.65c-86.566,-156.29 -210.956,34.349 -557.193,53.813c-268.972,15.138 -268.945,-287.903 -533.916,-340.921c-372.283,-74.543 -689.183,574.2 -1415.1,318.694c-960.451,-338.108 -2016.39,-357.817 -2016.39,-357.817l16.981,-113.296c-0,0 968.077,146.289 1980.42,363.579c680.434,146.009 1038.87,-371.75 1425.59,-292.851c258.037,52.619 293.23,314.356 545.826,316.97c348.265,3.604 488.496,-124.041 560.637,6.179Z" style="fill:#fff;fill-rule:nonzero;"/><path d="M4496.85,260.66l-13.066,87.187c-57.709,-104.195 -213.714,-37.84 -564.117,-66.223c-236.088,-19.111 -306.575,-240.878 -557.639,-293.047c-401.145,-83.304 -804.788,314.9 -1436.11,266.995c-1069.28,-81.136 -1944.46,-369.252 -1944.46,-369.252l23.216,-154.877c-0,0 784,451.186 1908.49,375.015c583.399,-39.551 1031.04,-328.99 1446.59,-241.15c244.152,51.634 349.647,234.717 569.552,269.096c352.152,55.113 524.271,48.088 567.55,126.256Z" style="fill:#fff;fill-rule:nonzero;"/><path d="M4525.24,71.221l-14.461,96.484c-28.855,-52.099 -217.966,-102.202 -571.041,-186.256c-204.19,-48.616 -344.122,-194.118 -581.415,-245.137c-429.892,-92.503 -915.47,96.255 -1457.07,215.263c-1169.27,256.934 -1872.52,-380.732 -1872.52,-380.732l24.593,-164.087c-0,-0 640.885,843.589 1836.51,386.443c509.484,-194.818 1023.5,-287.194 1467.59,-189.409c230.427,50.173 404.029,159.211 593.328,221.185c352.531,115.422 560.049,220.22 574.481,246.246Z" style="fill:#fff;fill-rule:nonzero;"/><path d="M4255.34,1871.94l-22.502,150.138c-28.855,-52.099 -118.488,608.125 -454.173,770.706c-335.642,162.587 -247.997,-806.782 -721.176,-694.023c-473.133,112.723 -1198.35,1368.66 -1854.02,759.751c-655.727,-608.877 -1647.16,-135.708 -1647.16,-135.708l33.969,-226.638c-0,-0 1032.52,-483.469 1708.16,157.236c675.643,640.66 1345.57,-630.973 1799.46,-725.182c453.9,-94.21 357.114,826.017 693.742,668.15c336.635,-157.911 420.41,-802.554 463.696,-724.43Z" style="fill:#fff;fill-rule:nonzero;"/></g></svg>
